<svg xmlns="http://www.w3.org/2000/svg" width="23.993" height="23.994" viewBox="0 0 23.993 23.994">
  <g id="Group_1" data-name="Group 1" transform="translate(0 511.997)">
    <path id="Path_1" data-name="Path 1" d="M9.947-324.064l-2.827,2.827a3,3,0,0,1-4.241,0,3,3,0,0,1,0-4.241l5.656-5.656a3,3,0,0,1,4.241,0,1,1,0,0,0,1.414,0,1,1,0,0,0,0-1.414,5,5,0,0,0-7.068,0l-5.656,5.655a5,5,0,0,0,0,7.068,5,5,0,0,0,7.069,0l2.827-2.827a1,1,0,0,0,0-1.414A1,1,0,0,0,9.947-324.064Z" transform="translate(0 -169.646)" fill="rgba(165,135,35,0.5)"/>
    <path id="Path_2" data-name="Path 2" d="M204.511-510.533a5,5,0,0,0-7.069,0l-3.392,3.392a1,1,0,0,0,0,1.414,1,1,0,0,0,1.414,0l3.392-3.392a3,3,0,0,1,4.242,0,3,3,0,0,1,0,4.241l-6.22,6.22a3,3,0,0,1-4.241,0,1,1,0,0,0-1.414,0,1,1,0,0,0,0,1.414,5,5,0,0,0,7.068,0l6.22-6.22A5,5,0,0,0,204.511-510.533Z" transform="translate(-181.982)" fill="rgba(165,135,35,0.5)"/>
  </g>
</svg>
