<svg id="twitter" xmlns="http://www.w3.org/2000/svg" width="22.122" height="17.974" viewBox="0 0 22.122 17.974">
  <g id="Group_3" data-name="Group 3" transform="translate(0)">
    <path id="Path_7" data-name="Path 7" d="M22.122,50.128a9.456,9.456,0,0,1-2.613.716,4.51,4.51,0,0,0,2-2.507,9.064,9.064,0,0,1-2.876,1.1,4.535,4.535,0,0,0-7.845,3.1,4.67,4.67,0,0,0,.105,1.034A12.837,12.837,0,0,1,1.54,48.827a4.536,4.536,0,0,0,1.394,6.061A4.479,4.479,0,0,1,.885,54.33v.05a4.556,4.556,0,0,0,3.634,4.456,4.526,4.526,0,0,1-1.189.149,4.01,4.01,0,0,1-.859-.077,4.578,4.578,0,0,0,4.238,3.159A9.113,9.113,0,0,1,1.085,64,8.494,8.494,0,0,1,0,63.939a12.768,12.768,0,0,0,6.957,2.035A12.819,12.819,0,0,0,19.866,53.069c0-.2-.007-.394-.017-.586A9.048,9.048,0,0,0,22.122,50.128Z" transform="translate(0 -48)" fill="rgba(165,135,35,0.5)"/>
  </g>
</svg>
